<?xml version="1.0" encoding="UTF-8" standalone="no"?>
<!DOCTYPE svg PUBLIC "-//W3C//DTD SVG 1.1//EN" "http://www.w3.org/Graphics/SVG/1.1/DTD/svg11.dtd">
<svg xmlns="http://www.w3.org/2000/svg" version="1.1" viewBox="0.00 0.00 1024.00 1024.00">
<g stroke-width="2.00" fill="none" stroke-linecap="butt">
<path stroke="#41667a" vector-effect="non-scaling-stroke" d="
  M 701.78 377.71
  Q 700.90 378.42 701.41 379.67
  Q 701.72 380.41 701.74 379.61
  L 701.79 377.94"
/>
<path stroke="#41667a" vector-effect="non-scaling-stroke" d="
  M 715.76 453.93
  Q 713.91 456.40 713.23 459.36"
/>
<path stroke="#919da8" vector-effect="non-scaling-stroke" d="
  M 710.98 463.97
  L 705.54 471.28
  Q 705.40 471.47 705.39 471.70
  Q 705.38 471.88 705.26 471.97"
/>
<path stroke="#919da8" vector-effect="non-scaling-stroke" d="
  M 704.91 472.32
  Q 701.96 475.83 698.81 479.18
  C 696.23 481.92 691.71 484.61 688.24 486.59
  Q 685.59 488.10 683.33 490.20"
/>
<path stroke="#919da8" vector-effect="non-scaling-stroke" d="
  M 679.75 491.35
  C 677.36 492.09 672.58 493.37 673.60 496.84"
/>
<path stroke="#41667a" vector-effect="non-scaling-stroke" d="
  M 665.79 519.74
  L 661.26 529.30"
/>
<path stroke="#41667a" vector-effect="non-scaling-stroke" d="
  M 661.26 529.30
  Q 661.19 529.39 661.01 529.38
  Q 660.91 529.37 660.85 529.46
  L 651.98 544.75"
/>
<path stroke="#919da8" vector-effect="non-scaling-stroke" d="
  M 651.98 544.75
  Q 648.51 549.59 645.10 554.50
  C 643.38 556.98 640.83 559.22 639.02 561.96"
/>
<path stroke="#29455c" vector-effect="non-scaling-stroke" d="
  M 377.82 224.96
  Q 371.20 231.82 364.68 241.17
  Q 360.41 247.28 357.36 252.42
  Q 355.72 255.19 358.26 253.20
  C 365.00 247.93 370.14 244.12 378.73 237.37
  C 384.48 232.85 391.69 228.77 396.85 225.29
  C 401.95 221.84 407.69 219.04 412.51 215.24
  A 1.95 1.95 0.0 0 1 415.21 215.53
  Q 420.81 222.31 427.65 227.84
  A 1.38 1.37 -38.9 0 1 427.40 230.14
  Q 409.50 239.16 393.63 251.30
  C 382.61 259.72 372.05 268.80 360.94 276.92
  Q 360.21 277.45 360.30 278.22
  A 0.76 0.76 0.0 0 0 361.11 278.90
  C 366.00 278.56 377.19 279.18 380.51 276.75
  C 386.66 272.25 392.80 267.45 398.99 263.38
  Q 408.25 257.32 417.64 251.44
  C 421.73 248.88 427.07 246.21 431.56 243.28
  A 2.71 2.70 -34.6 0 1 435.23 243.95
  Q 438.87 248.97 443.67 253.31
  Q 444.78 254.32 444.95 256.03
  Q 445.00 256.53 444.57 256.78
  Q 429.86 265.29 416.51 275.79
  Q 415.07 276.92 416.89 276.75
  C 425.67 275.93 436.04 276.26 443.36 275.89
  C 464.04 274.86 483.65 272.14 505.29 268.19
  C 512.18 266.93 519.65 264.71 526.92 263.13
  Q 534.99 261.38 550.45 255.44
  C 560.17 251.70 570.31 246.81 580.16 242.27
  C 584.92 240.08 589.19 237.45 593.65 234.80
  C 594.95 234.03 596.33 232.87 597.81 232.06
  C 602.33 229.61 607.05 226.82 611.23 223.85
  Q 612.87 222.68 614.27 223.97
  Q 627.50 236.12 639.13 252.11
  Q 649.38 266.20 652.19 271.28
  Q 657.67 281.18 665.83 300.48
  C 669.32 308.74 672.03 316.73 674.58 325.09
  Q 674.88 326.08 675.18 326.29
  Q 676.37 327.09 676.46 325.65
  Q 676.65 322.50 676.41 319.75
  Q 675.78 312.27 676.02 304.75
  Q 676.37 294.04 674.90 283.56"
/>
<path stroke="#41667a" vector-effect="non-scaling-stroke" d="
  M 674.90 283.56
  Q 673.15 274.32 670.92 265.28
  Q 664.66 239.91 645.87 222.24
  C 643.18 219.71 639.72 217.47 636.58 215.35
  C 632.71 212.73 628.77 211.24 624.41 209.53"
/>
<path stroke="#29455c" vector-effect="non-scaling-stroke" d="
  M 624.41 209.53
  Q 619.48 208.14 613.24 207.25
  Q 611.66 207.03 607.23 207.50
  A 1.03 1.03 0.0 0 1 606.30 207.09
  Q 605.41 205.90 603.91 203.60
  Q 602.48 201.43 596.19 195.94"
/>
<path stroke="#41667a" vector-effect="non-scaling-stroke" d="
  M 596.19 195.94
  C 582.04 181.45 561.74 173.29 541.97 169.85
  Q 528.29 167.47 518.75 167.49
  C 513.90 167.50 508.93 167.26 505.09 167.41
  C 482.98 168.23 461.23 173.43 440.74 181.48
  C 426.10 187.23 411.82 197.14 398.31 206.07
  Q 390.69 211.10 377.82 224.96"
/>
<path stroke="#487186" vector-effect="non-scaling-stroke" d="
  M 596.19 195.94
  Q 593.86 194.91 591.85 193.86
  C 578.83 187.03 561.57 183.33 547.99 183.01
  Q 525.11 182.46 512.36 183.60
  Q 474.81 186.94 434.27 200.25
  C 420.87 204.64 409.95 209.98 397.99 215.48
  Q 388.36 219.90 377.82 224.96"
/>
<path stroke="#487186" vector-effect="non-scaling-stroke" d="
  M 624.41 209.53
  Q 625.08 212.14 627.95 213.53
  A 1.63 1.58 86.1 0 1 628.62 214.13
  Q 629.30 215.20 630.59 215.40
  Q 631.12 215.48 631.54 215.84
  Q 633.00 217.11 634.43 218.38
  Q 634.53 218.47 634.57 218.59
  Q 634.61 218.73 634.65 218.86
  Q 634.74 219.25 635.05 219.50
  Q 644.15 226.99 650.80 236.73
  Q 660.40 250.79 662.52 256.27
  Q 663.94 259.92 667.11 266.40
  C 670.10 272.53 672.04 280.07 674.53 287.09
  Q 674.61 287.31 674.63 287.08
  L 674.90 283.56"
/>
<path stroke="#166e91" vector-effect="non-scaling-stroke" d="
  M 624.33 518.47
  C 642.45 489.59 650.79 458.05 651.57 424.00
  Q 652.07 402.35 651.76 386.25
  Q 651.09 350.55 638.63 316.56
  C 632.16 298.91 622.50 282.41 611.20 267.41
  Q 610.79 266.88 610.21 267.21
  Q 590.76 278.30 569.98 287.46
  Q 562.32 290.83 552.75 293.73
  C 535.63 298.92 525.35 302.45 511.25 305.07
  C 495.55 308.00 479.53 311.65 463.58 312.22
  Q 460.91 312.32 457.25 312.73
  Q 449.14 313.65 422.75 313.86
  Q 403.64 314.01 385.36 313.96
  Q 383.87 313.95 383.39 315.37
  C 379.44 327.06 375.12 339.26 373.66 351.19
  Q 372.38 361.71 371.62 372.27
  C 370.77 383.89 370.86 397.13 370.77 409.58
  Q 370.66 425.28 370.69 426.91
  C 371.63 465.66 384.77 505.85 410.12 535.39
  C 437.13 566.85 472.27 587.52 514.99 586.01
  Q 526.87 585.59 533.74 584.25
  C 548.87 581.30 564.06 574.78 577.24 566.00
  C 595.89 553.57 612.38 537.51 624.33 518.47"
/>
<path stroke="#919da8" vector-effect="non-scaling-stroke" d="
  M 673.88 452.26
  C 680.76 446.40 684.43 435.18 684.41 426.32
  C 684.40 422.54 683.14 416.37 681.31 413.47
  C 678.87 409.62 676.36 405.41 673.73 404.36
  Q 672.93 404.04 673.01 404.90
  C 673.84 414.34 673.21 423.91 673.50 432.98
  Q 673.81 442.45 673.05 451.83
  Q 672.95 453.06 673.88 452.26"
/>
<path stroke="#919da8" vector-effect="non-scaling-stroke" d="
  M 349.23 451.76
  L 348.92 405.98
  Q 348.90 403.24 347.09 405.30
  Q 333.76 420.43 339.60 438.22
  C 340.83 441.98 345.04 449.98 348.44 452.19
  A 0.51 0.51 0.0 0 0 349.23 451.76"
/>
<path stroke="#919da8" vector-effect="non-scaling-stroke" d="
  M 433.89 635.05
  C 431.58 642.58 426.89 645.73 419.57 648.46
  Q 412.54 651.07 405.47 653.24
  A 0.60 0.60 0.0 0 0 405.21 654.23
  C 417.94 667.67 427.78 677.26 445.13 692.36
  Q 475.27 718.57 507.31 742.43
  Q 509.48 744.04 510.95 744.91
  Q 511.44 745.20 511.89 744.86
  Q 537.92 725.27 556.85 709.35
  Q 584.20 686.35 598.32 672.07
  Q 607.22 663.08 616.26 654.46
  A 0.79 0.78 -57.9 0 0 615.96 653.14
  C 605.70 649.95 591.01 647.22 588.26 634.51"
/>
<path stroke="#4f7484" vector-effect="non-scaling-stroke" d="
  M 588.26 634.51
  L 587.99 603.79
  Q 587.97 602.16 586.90 603.38
  C 586.34 604.02 585.09 604.29 584.46 604.62
  Q 563.71 615.33 543.00 619.73
  C 522.87 624.00 500.84 623.73 480.33 620.19
  Q 465.46 617.63 451.59 611.33
  Q 443.09 607.46 434.62 603.24
  A 0.45 0.45 0.0 0 0 433.97 603.64
  L 433.89 635.05"
/>
<path stroke="#bed6dc" vector-effect="non-scaling-stroke" d="
  M 588.26 634.51
  Q 576.39 642.37 572.60 644.57
  C 548.29 658.68 517.81 662.80 490.34 658.97
  C 469.64 656.08 450.82 647.05 433.89 635.05"
/>
<path stroke="#8f8229" vector-effect="non-scaling-stroke" d="
  M 223.81 786.86
  L 223.78 876.97
  Q 223.78 877.90 224.71 877.90
  L 281.28 877.72
  A 0.59 0.58 -0.0 0 0 281.87 877.14
  L 281.77 790.29"
/>
<path stroke="#918f3b" vector-effect="non-scaling-stroke" d="
  M 281.77 790.29
  C 285.60 773.55 309.30 771.91 315.61 787.89
  Q 316.98 791.37 316.95 799.31
  Q 316.91 812.23 317.12 825.29"
/>
<path stroke="#8f8229" vector-effect="non-scaling-stroke" d="
  M 317.12 825.29
  L 317.06 877.38
  A 0.37 0.37 0.0 0 0 317.44 877.75
  Q 404.37 877.29 491.25 877.72
  C 560.91 878.07 630.59 877.74 700.25 877.64
  Q 701.77 877.64 703.12 877.46
  A 1.31 1.31 0.0 0 0 704.25 876.16
  L 704.22 791.53"
/>
<path stroke="#918f3b" vector-effect="non-scaling-stroke" d="
  M 704.22 791.53
  Q 708.00 778.59 720.75 777.05
  Q 731.29 775.77 737.30 784.42"
/>
<path stroke="#8f8229" vector-effect="non-scaling-stroke" d="
  M 737.30 784.42
  C 738.53 786.97 739.94 789.12 739.94 792.06
  Q 740.00 834.52 739.99 877.25
  A 0.73 0.73 0.0 0 0 740.72 877.98
  L 798.28 877.69
  Q 798.76 877.68 798.76 877.20
  L 798.54 786.19"
/>
<path stroke="#919da8" vector-effect="non-scaling-stroke" d="
  M 798.54 786.19
  Q 798.15 784.72 797.97 782.25
  Q 797.93 781.69 797.26 781.50"
/>
<path stroke="#41667a" vector-effect="non-scaling-stroke" d="
  M 778.33 737.23
  Q 775.57 732.85 771.41 729.10"
/>
<path stroke="#919da8" vector-effect="non-scaling-stroke" d="
  M 763.95 721.88
  C 755.86 714.06 746.45 710.14 735.14 705.11
  Q 727.97 701.93 709.45 692.74
  C 692.30 684.23 675.08 676.38 657.76 668.48
  Q 656.76 668.03 655.97 668.80
  C 636.36 688.00 616.83 707.62 596.02 725.53
  Q 566.66 750.79 524.19 779.68
  Q 516.40 784.97 511.53 787.53
  Q 511.04 787.79 510.57 787.51
  C 488.83 774.66 467.64 759.79 447.92 744.04
  Q 409.74 713.55 375.58 678.58
  C 372.07 674.98 368.55 671.80 364.94 668.55
  A 1.03 1.03 0.0 0 0 363.82 668.37
  Q 324.17 686.25 285.12 705.25
  Q 271.22 712.01 268.28 713.81
  C 244.78 728.19 224.29 759.17 223.81 786.86"
/>
<path stroke="#fff192" vector-effect="non-scaling-stroke" d="
  M 661.20 689.65
  Q 643.16 707.73 633.39 717.14
  C 618.52 731.49 602.10 744.72 585.77 758.01
  C 562.35 777.06 537.88 793.63 512.60 809.66
  A 2.39 2.39 0.0 0 1 510.05 809.65
  C 492.63 798.47 476.40 789.13 457.88 775.60
  Q 449.87 769.75 441.99 763.46
  Q 403.60 732.87 368.55 698.45
  Q 365.27 695.22 361.57 691.96
  A 2.90 2.88 -38.5 0 0 358.28 691.60
  Q 355.00 693.39 351.05 695.28
  C 328.57 706.08 305.85 716.43 283.47 727.40
  C 277.17 730.49 273.17 732.23 269.09 735.59
  Q 263.24 740.38 257.64 747.87
  Q 249.35 758.97 241.51 770.32"
/>
<path stroke="#fde480" vector-effect="non-scaling-stroke" d="
  M 241.51 770.32
  Q 234.26 780.11 223.81 786.86"
/>
<path stroke="#fdd613" vector-effect="non-scaling-stroke" d="
  M 781.00 770.23
  Q 781.05 770.90 780.34 770.97
  Q 779.79 771.03 779.89 771.58
  Q 779.95 771.88 779.81 771.88
  Q 779.72 771.88 779.72 771.97
  L 779.56 858.82
  A 1.13 1.12 0.0 0 1 778.43 859.94
  L 753.25 859.99
  Q 751.82 860.00 751.43 858.63
  Q 750.63 855.79 749.86 852.90
  C 748.61 848.22 748.24 843.14 747.37 838.29
  C 745.17 826.13 746.71 813.69 744.73 801.53
  Q 743.81 795.96 742.62 792.50
  Q 741.32 788.71 737.30 784.42"
/>
<path stroke="#fdd613" vector-effect="non-scaling-stroke" d="
  M 704.22 791.53
  Q 700.86 798.86 698.91 806.77
  Q 698.42 808.75 697.58 810.92
  Q 696.79 812.96 696.18 815.06
  Q 689.98 836.30 683.36 858.37
  Q 683.03 859.46 681.89 859.50
  C 668.90 859.97 652.19 859.63 643.20 859.66
  C 624.06 859.74 605.05 860.02 585.75 859.74
  C 567.80 859.48 549.37 859.94 532.00 859.96
  Q 435.88 860.06 339.75 860.16
  C 336.89 860.16 335.56 854.92 334.98 852.51
  Q 331.12 836.39 326.44 820.50
  C 325.04 815.72 323.08 807.45 320.64 801.49
  Q 318.35 795.87 318.48 801.94
  Q 318.70 812.37 317.12 825.29"
/>
<path stroke="#fdd613" vector-effect="non-scaling-stroke" d="
  M 281.77 790.29
  C 278.22 794.41 277.42 798.46 277.00 803.79
  C 275.64 821.07 274.76 838.90 270.68 856.46
  C 270.39 857.70 270.18 859.99 268.51 859.99
  Q 256.26 859.99 244.14 859.98
  Q 242.03 859.98 242.06 857.87
  Q 242.52 820.66 242.57 783.09
  C 242.57 779.48 242.16 776.39 243.22 772.66
  Q 243.35 772.18 243.18 771.71
  Q 242.66 770.24 241.51 770.32"
/>
<path stroke="#fde480" vector-effect="non-scaling-stroke" d="
  M 795.23 782.11
  L 794.30 782.20
  A 0.59 0.59 0.0 0 0 793.86 783.10
  Q 795.97 786.43 798.54 786.19"
/>
<path stroke="#11aede" vector-effect="non-scaling-stroke" d="
  M 391.28 330.83
  C 390.45 336.17 389.00 341.68 388.44 346.76
  Q 387.10 358.95 387.27 368.75
  Q 387.42 377.56 389.09 406.99
  Q 390.16 425.72 391.10 430.38
  C 396.80 458.66 405.47 484.78 422.89 507.71
  C 432.54 520.40 442.19 529.86 454.48 538.51
  C 469.98 549.42 490.67 557.40 509.81 556.37
  C 516.77 556.00 523.49 556.11 529.99 554.48
  C 540.31 551.89 552.08 547.93 561.42 542.09
  C 566.26 539.08 570.57 536.77 574.89 532.91
  Q 577.89 530.23 580.87 527.56
  C 586.32 522.68 591.05 516.89 595.96 511.49
  Q 601.79 505.08 610.96 489.47
  Q 614.45 483.53 619.36 470.95
  C 625.57 455.02 629.47 438.42 632.25 421.65
  Q 632.72 418.75 632.90 414.80
  C 633.11 410.00 633.76 405.17 633.74 400.53
  C 633.73 396.24 633.61 393.26 634.32 390.02
  Q 634.68 388.38 634.72 386.94
  Q 635.40 363.01 634.74 350.25
  C 633.96 335.35 629.19 321.76 623.45 305.53
  Q 621.46 299.90 613.40 287.42
  Q 612.35 285.79 611.66 284.32
  A 1.90 1.90 0.0 0 0 608.91 283.52
  Q 597.72 290.70 586.28 296.74
  C 576.46 301.92 565.70 305.89 555.15 309.63
  Q 551.19 311.04 548.79 311.71
  C 526.73 317.92 512.22 321.33 490.59 325.19
  C 457.58 331.07 427.12 329.21 392.76 329.54
  A 1.51 1.51 0.0 0 0 391.28 330.83"
/>
<path stroke="#918f3b" vector-effect="non-scaling-stroke" d="
  M 660.0945 823.8086
  A 28.28 27.92 -5.4 0 0 629.3125 798.6739
  A 28.28 27.92 -5.4 0 0 603.7855 829.1314
  A 28.28 27.92 -5.4 0 0 634.5675 854.2661
  A 28.28 27.92 -5.4 0 0 660.0945 823.8086"
/>
</g>
<path fill="#223a50" d="
  M 701.78 377.71
  Q 700.90 378.42 701.41 379.67
  Q 701.72 380.41 701.74 379.61
  L 701.79 377.94
  Q 702.31 382.02 703.71 384.02
  C 707.68 389.66 712.15 395.25 714.82 401.74
  C 716.23 405.15 717.51 409.83 718.93 413.87
  Q 719.89 416.60 719.95 419.29
  Q 720.14 428.33 720.01 437.36
  C 719.93 443.07 717.54 448.59 715.76 453.93
  Q 713.91 456.40 713.23 459.36
  Q 712.51 461.80 710.98 463.97
  L 705.54 471.28
  Q 705.40 471.47 705.39 471.70
  Q 705.38 471.88 705.26 471.97
  Q 705.33 472.37 704.91 472.32
  Q 701.96 475.83 698.81 479.18
  C 696.23 481.92 691.71 484.61 688.24 486.59
  Q 685.59 488.10 683.33 490.20
  Q 681.36 489.94 679.75 491.35
  C 677.36 492.09 672.58 493.37 673.60 496.84
  C 671.70 499.51 672.13 502.55 671.21 505.29
  C 670.47 507.48 670.07 509.77 669.10 511.84
  Q 667.25 515.80 665.79 519.74
  L 661.26 529.30
  Q 661.19 529.39 661.01 529.38
  Q 660.91 529.37 660.85 529.46
  L 651.98 544.75
  Q 648.51 549.59 645.10 554.50
  C 643.38 556.98 640.83 559.22 639.02 561.96
  Q 630.87 570.50 628.16 574.65
  C 622.41 583.46 623.97 592.14 624.00 601.99
  C 624.02 607.34 624.91 611.13 626.97 615.69
  A 1.44 1.41 -1.4 0 0 627.75 616.42
  Q 630.04 617.31 632.42 618.32
  C 635.29 619.54 638.90 620.49 642.03 622.00
  C 646.96 624.38 652.35 625.58 657.41 627.76
  Q 659.71 628.76 663.74 630.22
  C 666.63 631.27 669.32 632.70 672.16 633.70
  Q 676.25 635.13 680.15 637.01
  C 686.60 640.10 693.12 642.27 699.38 645.64
  C 702.76 647.47 707.03 648.36 709.70 649.75
  Q 715.69 652.86 720.17 654.79
  Q 729.62 658.86 730.78 659.43
  Q 747.34 667.60 763.82 675.92
  C 765.74 676.89 768.22 678.34 770.29 679.87
  C 776.14 684.22 782.71 687.81 787.86 692.85
  Q 796.24 701.06 804.44 709.43
  C 806.78 711.82 808.40 714.90 810.66 717.57
  C 813.95 721.46 815.47 725.42 818.26 729.35
  C 822.02 734.64 823.81 740.65 826.18 746.45
  C 830.26 756.45 833.42 767.34 835.25 777.50
  C 835.73 780.14 836.01 784.21 836.01 787.51
  Q 836.02 838.77 836.04 890.03
  C 836.04 894.34 834.64 897.55 833.27 901.49
  C 831.42 906.83 824.74 913.70 819.34 915.39
  Q 817.24 916.04 812.59 916.04
  Q 510.58 916.04 208.57 916.05
  Q 203.93 916.05 201.15 914.80
  C 193.67 911.43 189.44 903.15 187.59 895.46
  C 187.24 894.02 185.97 891.99 185.97 890.75
  Q 185.98 844.87 185.99 799.00
  C 185.99 791.92 187.64 784.89 188.04 778.06
  Q 188.21 775.10 189.22 771.05
  C 190.01 767.88 190.21 764.60 191.07 761.67
  Q 193.35 753.90 196.64 746.51
  Q 197.89 743.70 199.28 739.95
  C 201.34 734.41 204.62 730.39 207.23 725.52
  C 209.20 721.85 211.78 717.68 214.50 714.56
  C 217.01 711.67 218.94 708.24 221.39 705.65
  C 226.10 700.65 230.75 695.65 236.44 691.74
  C 238.97 690.00 241.21 687.80 243.63 686.21
  C 249.12 682.59 254.34 678.83 260.22 675.90
  Q 277.98 667.05 295.72 658.18
  Q 298.00 657.04 300.03 656.37
  C 306.50 654.22 312.14 650.10 318.47 648.16
  C 325.38 646.03 331.38 641.99 338.27 639.60
  C 341.11 638.61 343.79 637.16 346.55 636.18
  C 352.06 634.24 356.77 631.44 362.45 629.51
  C 365.45 628.48 368.39 626.89 371.20 625.90
  Q 376.77 623.94 382.24 621.73
  C 386.57 619.98 397.72 617.62 397.80 611.50
  Q 397.99 597.30 398.03 583.11
  Q 398.04 579.79 396.99 577.56
  C 394.59 572.46 388.32 567.49 384.28 563.50
  Q 382.43 561.67 380.07 558.24
  C 378.32 555.70 376.08 553.51 374.48 551.12
  C 372.16 547.66 370.34 545.03 367.82 540.74
  C 363.83 533.98 360.12 528.01 356.96 519.19
  C 355.73 515.74 352.86 509.69 351.88 504.48
  C 351.53 502.59 350.30 500.79 350.12 499.26
  C 349.85 496.90 349.90 495.67 347.69 494.34
  Q 345.39 492.96 341.14 491.11
  Q 336.28 488.98 327.23 482.28
  Q 321.78 478.23 317.16 471.13
  C 315.75 468.97 313.70 467.13 312.31 464.72
  Q 307.49 456.37 304.73 447.15
  C 303.55 443.23 304.79 439.08 303.02 435.59
  C 301.11 431.83 301.87 426.18 303.07 422.32
  C 304.40 418.07 303.57 414.08 305.01 409.78
  C 307.93 401.00 312.11 393.23 317.42 385.66
  Q 318.33 384.37 320.33 382.64
  C 323.85 379.59 321.93 378.19 320.53 374.90
  C 319.77 373.09 320.05 370.99 319.87 369.03
  C 319.64 366.61 318.21 364.63 317.97 361.97
  C 317.64 358.29 316.17 355.42 315.88 351.74
  Q 315.72 349.77 314.96 347.92
  C 313.12 343.42 314.69 338.77 313.01 334.04
  C 311.37 329.44 312.00 323.34 311.93 318.47
  C 311.88 315.48 310.67 313.39 310.39 310.61
  Q 309.44 301.41 310.95 292.35
  C 311.94 286.45 311.50 281.01 312.86 275.67
  C 313.85 271.79 313.81 267.92 314.94 264.15
  C 315.87 261.05 316.21 257.90 317.50 255.02
  C 318.34 253.15 319.23 251.39 319.85 249.40
  C 324.51 234.45 332.33 220.29 342.50 208.38
  C 345.34 205.05 347.76 201.35 350.64 198.35
  Q 356.00 192.79 361.60 187.49
  C 364.12 185.10 367.48 183.17 370.28 180.68
  C 380.57 171.52 392.86 164.84 404.64 157.92
  C 407.34 156.34 409.97 156.02 412.62 154.69
  C 418.06 151.98 423.18 149.25 429.01 147.33
  Q 441.06 143.34 453.11 139.35
  Q 455.34 138.61 459.52 138.01
  C 462.52 137.58 465.34 136.49 468.16 136.09
  C 472.81 135.42 477.27 134.37 481.98 134.01
  C 488.41 133.52 494.98 132.22 501.03 132.05
  C 527.23 131.28 553.87 134.10 579.24 143.35
  C 585.92 145.78 592.27 149.07 598.70 152.31
  C 602.75 154.36 606.64 157.14 610.70 159.54
  Q 614.66 161.87 617.41 164.49
  C 621.57 168.45 624.06 171.91 630.10 173.75
  Q 637.10 175.88 643.96 178.41
  C 649.49 180.45 654.01 184.01 658.93 187.25
  Q 662.07 189.33 665.48 192.44
  C 668.31 195.03 671.17 197.08 673.66 200.03
  C 677.56 204.66 682.67 208.69 685.85 213.77
  C 687.29 216.07 688.91 218.13 690.15 220.51
  Q 692.08 224.20 694.21 227.77
  Q 696.27 231.21 697.89 235.21
  C 699.72 239.76 702.12 243.88 703.45 248.54
  C 706.08 257.75 708.58 264.78 710.47 276.01
  Q 711.70 283.38 711.94 290.47
  C 712.34 302.40 712.64 315.13 711.04 326.97
  C 710.71 329.44 710.82 331.96 710.39 334.32
  Q 708.29 345.80 706.11 357.27
  C 705.57 360.08 704.16 364.39 703.91 368.25
  C 703.70 371.65 701.81 374.12 701.78 377.71
  Z
  M 377.82 224.96
  Q 371.20 231.82 364.68 241.17
  Q 360.41 247.28 357.36 252.42
  Q 355.72 255.19 358.26 253.20
  C 365.00 247.93 370.14 244.12 378.73 237.37
  C 384.48 232.85 391.69 228.77 396.85 225.29
  C 401.95 221.84 407.69 219.04 412.51 215.24
  A 1.95 1.95 0.0 0 1 415.21 215.53
  Q 420.81 222.31 427.65 227.84
  A 1.38 1.37 -38.9 0 1 427.40 230.14
  Q 409.50 239.16 393.63 251.30
  C 382.61 259.72 372.05 268.80 360.94 276.92
  Q 360.21 277.45 360.30 278.22
  A 0.76 0.76 0.0 0 0 361.11 278.90
  C 366.00 278.56 377.19 279.18 380.51 276.75
  C 386.66 272.25 392.80 267.45 398.99 263.38
  Q 408.25 257.32 417.64 251.44
  C 421.73 248.88 427.07 246.21 431.56 243.28
  A 2.71 2.70 -34.6 0 1 435.23 243.95
  Q 438.87 248.97 443.67 253.31
  Q 444.78 254.32 444.95 256.03
  Q 445.00 256.53 444.57 256.78
  Q 429.86 265.29 416.51 275.79
  Q 415.07 276.92 416.89 276.75
  C 425.67 275.93 436.04 276.26 443.36 275.89
  C 464.04 274.86 483.65 272.14 505.29 268.19
  C 512.18 266.93 519.65 264.71 526.92 263.13
  Q 534.99 261.38 550.45 255.44
  C 560.17 251.70 570.31 246.81 580.16 242.27
  C 584.92 240.08 589.19 237.45 593.65 234.80
  C 594.95 234.03 596.33 232.87 597.81 232.06
  C 602.33 229.61 607.05 226.82 611.23 223.85
  Q 612.87 222.68 614.27 223.97
  Q 627.50 236.12 639.13 252.11
  Q 649.38 266.20 652.19 271.28
  Q 657.67 281.18 665.83 300.48
  C 669.32 308.74 672.03 316.73 674.58 325.09
  Q 674.88 326.08 675.18 326.29
  Q 676.37 327.09 676.46 325.65
  Q 676.65 322.50 676.41 319.75
  Q 675.78 312.27 676.02 304.75
  Q 676.37 294.04 674.90 283.56
  Q 673.15 274.32 670.92 265.28
  Q 664.66 239.91 645.87 222.24
  C 643.18 219.71 639.72 217.47 636.58 215.35
  C 632.71 212.73 628.77 211.24 624.41 209.53
  Q 619.48 208.14 613.24 207.25
  Q 611.66 207.03 607.23 207.50
  A 1.03 1.03 0.0 0 1 606.30 207.09
  Q 605.41 205.90 603.91 203.60
  Q 602.48 201.43 596.19 195.94
  C 582.04 181.45 561.74 173.29 541.97 169.85
  Q 528.29 167.47 518.75 167.49
  C 513.90 167.50 508.93 167.26 505.09 167.41
  C 482.98 168.23 461.23 173.43 440.74 181.48
  C 426.10 187.23 411.82 197.14 398.31 206.07
  Q 390.69 211.10 377.82 224.96
  Z
  M 624.33 518.47
  C 642.45 489.59 650.79 458.05 651.57 424.00
  Q 652.07 402.35 651.76 386.25
  Q 651.09 350.55 638.63 316.56
  C 632.16 298.91 622.50 282.41 611.20 267.41
  Q 610.79 266.88 610.21 267.21
  Q 590.76 278.30 569.98 287.46
  Q 562.32 290.83 552.75 293.73
  C 535.63 298.92 525.35 302.45 511.25 305.07
  C 495.55 308.00 479.53 311.65 463.58 312.22
  Q 460.91 312.32 457.25 312.73
  Q 449.14 313.65 422.75 313.86
  Q 403.64 314.01 385.36 313.96
  Q 383.87 313.95 383.39 315.37
  C 379.44 327.06 375.12 339.26 373.66 351.19
  Q 372.38 361.71 371.62 372.27
  C 370.77 383.89 370.86 397.13 370.77 409.58
  Q 370.66 425.28 370.69 426.91
  C 371.63 465.66 384.77 505.85 410.12 535.39
  C 437.13 566.85 472.27 587.52 514.99 586.01
  Q 526.87 585.59 533.74 584.25
  C 548.87 581.30 564.06 574.78 577.24 566.00
  C 595.89 553.57 612.38 537.51 624.33 518.47
  Z
  M 673.88 452.26
  C 680.76 446.40 684.43 435.18 684.41 426.32
  C 684.40 422.54 683.14 416.37 681.31 413.47
  C 678.87 409.62 676.36 405.41 673.73 404.36
  Q 672.93 404.04 673.01 404.90
  C 673.84 414.34 673.21 423.91 673.50 432.98
  Q 673.81 442.45 673.05 451.83
  Q 672.95 453.06 673.88 452.26
  Z
  M 349.23 451.76
  L 348.92 405.98
  Q 348.90 403.24 347.09 405.30
  Q 333.76 420.43 339.60 438.22
  C 340.83 441.98 345.04 449.98 348.44 452.19
  A 0.51 0.51 0.0 0 0 349.23 451.76
  Z
  M 433.89 635.05
  C 431.58 642.58 426.89 645.73 419.57 648.46
  Q 412.54 651.07 405.47 653.24
  A 0.60 0.60 0.0 0 0 405.21 654.23
  C 417.94 667.67 427.78 677.26 445.13 692.36
  Q 475.27 718.57 507.31 742.43
  Q 509.48 744.04 510.95 744.91
  Q 511.44 745.20 511.89 744.86
  Q 537.92 725.27 556.85 709.35
  Q 584.20 686.35 598.32 672.07
  Q 607.22 663.08 616.26 654.46
  A 0.79 0.78 -57.9 0 0 615.96 653.14
  C 605.70 649.95 591.01 647.22 588.26 634.51
  L 587.99 603.79
  Q 587.97 602.16 586.90 603.38
  C 586.34 604.02 585.09 604.29 584.46 604.62
  Q 563.71 615.33 543.00 619.73
  C 522.87 624.00 500.84 623.73 480.33 620.19
  Q 465.46 617.63 451.59 611.33
  Q 443.09 607.46 434.62 603.24
  A 0.45 0.45 0.0 0 0 433.97 603.64
  L 433.89 635.05
  Z
  M 223.81 786.86
  L 223.78 876.97
  Q 223.78 877.90 224.71 877.90
  L 281.28 877.72
  A 0.59 0.58 -0.0 0 0 281.87 877.14
  L 281.77 790.29
  C 285.60 773.55 309.30 771.91 315.61 787.89
  Q 316.98 791.37 316.95 799.31
  Q 316.91 812.23 317.12 825.29
  L 317.06 877.38
  A 0.37 0.37 0.0 0 0 317.44 877.75
  Q 404.37 877.29 491.25 877.72
  C 560.91 878.07 630.59 877.74 700.25 877.64
  Q 701.77 877.64 703.12 877.46
  A 1.31 1.31 0.0 0 0 704.25 876.16
  L 704.22 791.53
  Q 708.00 778.59 720.75 777.05
  Q 731.29 775.77 737.30 784.42
  C 738.53 786.97 739.94 789.12 739.94 792.06
  Q 740.00 834.52 739.99 877.25
  A 0.73 0.73 0.0 0 0 740.72 877.98
  L 798.28 877.69
  Q 798.76 877.68 798.76 877.20
  L 798.54 786.19
  Q 798.15 784.72 797.97 782.25
  Q 797.93 781.69 797.26 781.50
  C 799.10 780.13 797.44 777.94 796.18 776.70
  Q 795.81 776.34 795.87 775.83
  C 796.37 771.81 794.41 768.92 793.57 766.09
  Q 788.86 750.12 778.33 737.23
  Q 775.57 732.85 771.41 729.10
  Q 768.41 724.92 763.95 721.88
  C 755.86 714.06 746.45 710.14 735.14 705.11
  Q 727.97 701.93 709.45 692.74
  C 692.30 684.23 675.08 676.38 657.76 668.48
  Q 656.76 668.03 655.97 668.80
  C 636.36 688.00 616.83 707.62 596.02 725.53
  Q 566.66 750.79 524.19 779.68
  Q 516.40 784.97 511.53 787.53
  Q 511.04 787.79 510.57 787.51
  C 488.83 774.66 467.64 759.79 447.92 744.04
  Q 409.74 713.55 375.58 678.58
  C 372.07 674.98 368.55 671.80 364.94 668.55
  A 1.03 1.03 0.0 0 0 363.82 668.37
  Q 324.17 686.25 285.12 705.25
  Q 271.22 712.01 268.28 713.81
  C 244.78 728.19 224.29 759.17 223.81 786.86
  Z"
/>
<path fill="#6091a3" d="
  M 596.19 195.94
  Q 593.86 194.91 591.85 193.86
  C 578.83 187.03 561.57 183.33 547.99 183.01
  Q 525.11 182.46 512.36 183.60
  Q 474.81 186.94 434.27 200.25
  C 420.87 204.64 409.95 209.98 397.99 215.48
  Q 388.36 219.90 377.82 224.96
  Q 390.69 211.10 398.31 206.07
  C 411.82 197.14 426.10 187.23 440.74 181.48
  C 461.23 173.43 482.98 168.23 505.09 167.41
  C 508.93 167.26 513.90 167.50 518.75 167.49
  Q 528.29 167.47 541.97 169.85
  C 561.74 173.29 582.04 181.45 596.19 195.94
  Z"
/>
<path fill="#305068" d="
  M 596.19 195.94
  Q 602.48 201.43 603.91 203.60
  Q 605.41 205.90 606.30 207.09
  A 1.03 1.03 0.0 0 0 607.23 207.50
  Q 611.66 207.03 613.24 207.25
  Q 619.48 208.14 624.41 209.53
  Q 625.08 212.14 627.95 213.53
  A 1.63 1.58 86.1 0 1 628.62 214.13
  Q 629.30 215.20 630.59 215.40
  Q 631.12 215.48 631.54 215.84
  Q 633.00 217.11 634.43 218.38
  Q 634.53 218.47 634.57 218.59
  Q 634.61 218.73 634.65 218.86
  Q 634.74 219.25 635.05 219.50
  Q 644.15 226.99 650.80 236.73
  Q 660.40 250.79 662.52 256.27
  Q 663.94 259.92 667.11 266.40
  C 670.10 272.53 672.04 280.07 674.53 287.09
  Q 674.61 287.31 674.63 287.08
  L 674.90 283.56
  Q 676.37 294.04 676.02 304.75
  Q 675.78 312.27 676.41 319.75
  Q 676.65 322.50 676.46 325.65
  Q 676.37 327.09 675.18 326.29
  Q 674.88 326.08 674.58 325.09
  C 672.03 316.73 669.32 308.74 665.83 300.48
  Q 657.67 281.18 652.19 271.28
  Q 649.38 266.20 639.13 252.11
  Q 627.50 236.12 614.27 223.97
  Q 612.87 222.68 611.23 223.85
  C 607.05 226.82 602.33 229.61 597.81 232.06
  C 596.33 232.87 594.95 234.03 593.65 234.80
  C 589.19 237.45 584.92 240.08 580.16 242.27
  C 570.31 246.81 560.17 251.70 550.45 255.44
  Q 534.99 261.38 526.92 263.13
  C 519.65 264.71 512.18 266.93 505.29 268.19
  C 483.65 272.14 464.04 274.86 443.36 275.89
  C 436.04 276.26 425.67 275.93 416.89 276.75
  Q 415.07 276.92 416.51 275.79
  Q 429.86 265.29 444.57 256.78
  Q 445.00 256.53 444.95 256.03
  Q 444.78 254.32 443.67 253.31
  Q 438.87 248.97 435.23 243.95
  A 2.71 2.70 -34.6 0 0 431.56 243.28
  C 427.07 246.21 421.73 248.88 417.64 251.44
  Q 408.25 257.32 398.99 263.38
  C 392.80 267.45 386.66 272.25 380.51 276.75
  C 377.19 279.18 366.00 278.56 361.11 278.90
  A 0.76 0.76 0.0 0 1 360.30 278.22
  Q 360.21 277.45 360.94 276.92
  C 372.05 268.80 382.61 259.72 393.63 251.30
  Q 409.50 239.16 427.40 230.14
  A 1.38 1.37 -38.9 0 0 427.65 227.84
  Q 420.81 222.31 415.21 215.53
  A 1.95 1.95 0.0 0 0 412.51 215.24
  C 407.69 219.04 401.95 221.84 396.85 225.29
  C 391.69 228.77 384.48 232.85 378.73 237.37
  C 370.14 244.12 365.00 247.93 358.26 253.20
  Q 355.72 255.19 357.36 252.42
  Q 360.41 247.28 364.68 241.17
  Q 371.20 231.82 377.82 224.96
  Q 388.36 219.90 397.99 215.48
  C 409.95 209.98 420.87 204.64 434.27 200.25
  Q 474.81 186.94 512.36 183.60
  Q 525.11 182.46 547.99 183.01
  C 561.57 183.33 578.83 187.03 591.85 193.86
  Q 593.86 194.91 596.19 195.94
  Z"
/>
<path fill="#6091a3" d="
  M 624.41 209.53
  C 628.77 211.24 632.71 212.73 636.58 215.35
  C 639.72 217.47 643.18 219.71 645.87 222.24
  Q 664.66 239.91 670.92 265.28
  Q 673.15 274.32 674.90 283.56
  L 674.63 287.08
  Q 674.61 287.31 674.53 287.09
  C 672.04 280.07 670.10 272.53 667.11 266.40
  Q 663.94 259.92 662.52 256.27
  Q 660.40 250.79 650.80 236.73
  Q 644.15 226.99 635.05 219.50
  Q 634.74 219.25 634.65 218.86
  Q 634.61 218.73 634.57 218.59
  Q 634.53 218.47 634.43 218.38
  Q 633.00 217.11 631.54 215.84
  Q 631.12 215.48 630.59 215.40
  Q 629.30 215.20 628.62 214.13
  A 1.63 1.58 86.1 0 0 627.95 213.53
  Q 625.08 212.14 624.41 209.53
  Z"
/>
<path fill="#09a2d2" d="
  M 651.57 424.00
  C 650.79 458.05 642.45 489.59 624.33 518.47
  C 612.38 537.51 595.89 553.57 577.24 566.00
  C 564.06 574.78 548.87 581.30 533.74 584.25
  Q 526.87 585.59 514.99 586.01
  C 472.27 587.52 437.13 566.85 410.12 535.39
  C 384.77 505.85 371.63 465.66 370.69 426.91
  Q 370.66 425.28 370.77 409.58
  C 370.86 397.13 370.77 383.89 371.62 372.27
  Q 372.38 361.71 373.66 351.19
  C 375.12 339.26 379.44 327.06 383.39 315.37
  Q 383.87 313.95 385.36 313.96
  Q 403.64 314.01 422.75 313.86
  Q 449.14 313.65 457.25 312.73
  Q 460.91 312.32 463.58 312.22
  C 479.53 311.65 495.55 308.00 511.25 305.07
  C 525.35 302.45 535.63 298.92 552.75 293.73
  Q 562.32 290.83 569.98 287.46
  Q 590.76 278.30 610.21 267.21
  Q 610.79 266.88 611.20 267.41
  C 622.50 282.41 632.16 298.91 638.63 316.56
  Q 651.09 350.55 651.76 386.25
  Q 652.07 402.35 651.57 424.00
  Z
  M 391.28 330.83
  C 390.45 336.17 389.00 341.68 388.44 346.76
  Q 387.10 358.95 387.27 368.75
  Q 387.42 377.56 389.09 406.99
  Q 390.16 425.72 391.10 430.38
  C 396.80 458.66 405.47 484.78 422.89 507.71
  C 432.54 520.40 442.19 529.86 454.48 538.51
  C 469.98 549.42 490.67 557.40 509.81 556.37
  C 516.77 556.00 523.49 556.11 529.99 554.48
  C 540.31 551.89 552.08 547.93 561.42 542.09
  C 566.26 539.08 570.57 536.77 574.89 532.91
  Q 577.89 530.23 580.87 527.56
  C 586.32 522.68 591.05 516.89 595.96 511.49
  Q 601.79 505.08 610.96 489.47
  Q 614.45 483.53 619.36 470.95
  C 625.57 455.02 629.47 438.42 632.25 421.65
  Q 632.72 418.75 632.90 414.80
  C 633.11 410.00 633.76 405.17 633.74 400.53
  C 633.73 396.24 633.61 393.26 634.32 390.02
  Q 634.68 388.38 634.72 386.94
  Q 635.40 363.01 634.74 350.25
  C 633.96 335.35 629.19 321.76 623.45 305.53
  Q 621.46 299.90 613.40 287.42
  Q 612.35 285.79 611.66 284.32
  A 1.90 1.90 0.0 0 0 608.91 283.52
  Q 597.72 290.70 586.28 296.74
  C 576.46 301.92 565.70 305.89 555.15 309.63
  Q 551.19 311.04 548.79 311.71
  C 526.73 317.92 512.22 321.33 490.59 325.19
  C 457.58 331.07 427.12 329.21 392.76 329.54
  A 1.51 1.51 0.0 0 0 391.28 330.83
  Z"
/>
<path fill="#19bae9" d="
  M 391.28 330.83
  A 1.51 1.51 0.0 0 1 392.76 329.54
  C 427.12 329.21 457.58 331.07 490.59 325.19
  C 512.22 321.33 526.73 317.92 548.79 311.71
  Q 551.19 311.04 555.15 309.63
  C 565.70 305.89 576.46 301.92 586.28 296.74
  Q 597.72 290.70 608.91 283.52
  A 1.90 1.90 0.0 0 1 611.66 284.32
  Q 612.35 285.79 613.40 287.42
  Q 621.46 299.90 623.45 305.53
  C 629.19 321.76 633.96 335.35 634.74 350.25
  Q 635.40 363.01 634.72 386.94
  Q 634.68 388.38 634.32 390.02
  C 633.61 393.26 633.73 396.24 633.74 400.53
  C 633.76 405.17 633.11 410.00 632.90 414.80
  Q 632.72 418.75 632.25 421.65
  C 629.47 438.42 625.57 455.02 619.36 470.95
  Q 614.45 483.53 610.96 489.47
  Q 601.79 505.08 595.96 511.49
  C 591.05 516.89 586.32 522.68 580.87 527.56
  Q 577.89 530.23 574.89 532.91
  C 570.57 536.77 566.26 539.08 561.42 542.09
  C 552.08 547.93 540.31 551.89 529.99 554.48
  C 523.49 556.11 516.77 556.00 509.81 556.37
  C 490.67 557.40 469.98 549.42 454.48 538.51
  C 442.19 529.86 432.54 520.40 422.89 507.71
  C 405.47 484.78 396.80 458.66 391.10 430.38
  Q 390.16 425.72 389.09 406.99
  Q 387.42 377.56 387.27 368.75
  Q 387.10 358.95 388.44 346.76
  C 389.00 341.68 390.45 336.17 391.28 330.83
  Z"
/>
<path fill="#6091a3" d="
  M 701.78 377.71
  Q 701.79 377.82 701.79 377.94
  L 701.74 379.61
  Q 701.72 380.41 701.41 379.67
  Q 700.90 378.42 701.78 377.71
  Z"
/>
<path fill="#ffffff" d="
  M 684.41 426.32
  C 684.43 435.18 680.76 446.40 673.88 452.26
  Q 672.95 453.06 673.05 451.83
  Q 673.81 442.45 673.50 432.98
  C 673.21 423.91 673.84 414.34 673.01 404.90
  Q 672.93 404.04 673.73 404.36
  C 676.36 405.41 678.87 409.62 681.31 413.47
  C 683.14 416.37 684.40 422.54 684.41 426.32
  Z
  M 674.59 430.59
  C 674.26 435.16 673.01 440.61 675.32 444.86
  A 1.70 1.70 0.0 0 0 678.19 445.04
  C 683.12 438.20 681.73 429.44 681.46 421.50
  Q 681.26 415.60 677.86 410.65
  A 1.05 1.04 -47.8 0 0 676.08 410.74
  C 672.75 416.80 675.07 423.94 674.59 430.59
  Z"
/>
<path fill="#ffffff" d="
  M 348.92 405.98
  L 349.23 451.76
  A 0.51 0.51 0.0 0 1 348.44 452.19
  C 345.04 449.98 340.83 441.98 339.60 438.22
  Q 333.76 420.43 347.09 405.30
  Q 348.90 403.24 348.92 405.98
  Z"
/>
<path fill="#6091a3" d="
  M 715.76 453.93
  Q 714.99 456.93 713.23 459.36
  Q 713.91 456.40 715.76 453.93
  Z"
/>
<path fill="#ffffff" d="
  M 710.98 463.97
  Q 709.06 468.53 705.26 471.97
  Q 705.38 471.88 705.39 471.70
  Q 705.40 471.47 705.54 471.28
  L 710.98 463.97
  Z"
/>
<path fill="#ffffff" d="
  M 704.91 472.32
  Q 702.12 477.65 698.64 480.39
  Q 694.93 483.31 683.33 490.20
  Q 685.59 488.10 688.24 486.59
  C 691.71 484.61 696.23 481.92 698.81 479.18
  Q 701.96 475.83 704.91 472.32
  Z"
/>
<path fill="#ffffff" d="
  M 679.75 491.35
  C 677.45 493.12 674.82 493.88 673.60 496.84
  C 672.58 493.37 677.36 492.09 679.75 491.35
  Z"
/>
<path fill="#6091a3" d="
  M 665.79 519.74
  L 661.26 529.30
  L 665.79 519.74
  Z"
/>
<path fill="#6091a3" d="
  M 661.26 529.30
  Q 657.84 537.59 651.98 544.75
  L 660.85 529.46
  Q 660.91 529.37 661.01 529.38
  Q 661.19 529.39 661.26 529.30
  Z"
/>
<path fill="#ffffff" d="
  M 651.98 544.75
  C 647.96 551.38 644.53 557.17 639.02 561.96
  C 640.83 559.22 643.38 556.98 645.10 554.50
  Q 648.51 549.59 651.98 544.75
  Z"
/>
<path fill="#7cadb8" d="
  M 588.26 634.51
  Q 576.39 642.37 572.60 644.57
  C 548.29 658.68 517.81 662.80 490.34 658.97
  C 469.64 656.08 450.82 647.05 433.89 635.05
  L 433.97 603.64
  A 0.45 0.45 0.0 0 1 434.62 603.24
  Q 443.09 607.46 451.59 611.33
  Q 465.46 617.63 480.33 620.19
  C 500.84 623.73 522.87 624.00 543.00 619.73
  Q 563.71 615.33 584.46 604.62
  C 585.09 604.29 586.34 604.02 586.90 603.38
  Q 587.97 602.16 587.99 603.79
  L 588.26 634.51
  Z"
/>
<path fill="#ffffff" d="
  M 588.26 634.51
  C 591.01 647.22 605.70 649.95 615.96 653.14
  A 0.79 0.78 -57.9 0 1 616.26 654.46
  Q 607.22 663.08 598.32 672.07
  Q 584.20 686.35 556.85 709.35
  Q 537.92 725.27 511.89 744.86
  Q 511.44 745.20 510.95 744.91
  Q 509.48 744.04 507.31 742.43
  Q 475.27 718.57 445.13 692.36
  C 427.78 677.26 417.94 667.67 405.21 654.23
  A 0.60 0.60 0.0 0 1 405.47 653.24
  Q 412.54 651.07 419.57 648.46
  C 426.89 645.73 431.58 642.58 433.89 635.05
  C 450.82 647.05 469.64 656.08 490.34 658.97
  C 517.81 662.80 548.29 658.68 572.60 644.57
  Q 576.39 642.37 588.26 634.51
  Z"
/>
<path fill="#ffffff" d="
  M 763.95 721.88
  Q 751.17 713.08 736.88 706.56
  C 733.35 704.95 728.06 703.09 723.76 700.99
  C 710.39 694.46 697.11 687.73 683.64 681.85
  C 679.90 680.22 675.81 678.90 671.87 677.39
  Q 671.31 677.17 670.55 677.12
  A 1.53 1.49 63.3 0 1 669.83 676.87
  Q 667.20 675.06 664.51 674.86
  C 663.25 674.77 661.98 675.77 660.81 675.97
  C 657.47 676.53 655.50 676.62 653.39 679.51
  A 1.43 1.42 -53.9 0 0 653.70 681.51
  Q 657.58 684.36 661.20 689.65
  Q 643.16 707.73 633.39 717.14
  C 618.52 731.49 602.10 744.72 585.77 758.01
  C 562.35 777.06 537.88 793.63 512.60 809.66
  A 2.39 2.39 0.0 0 1 510.05 809.65
  C 492.63 798.47 476.40 789.13 457.88 775.60
  Q 449.87 769.75 441.99 763.46
  Q 403.60 732.87 368.55 698.45
  Q 365.27 695.22 361.57 691.96
  A 2.90 2.88 -38.5 0 0 358.28 691.60
  Q 355.00 693.39 351.05 695.28
  C 328.57 706.08 305.85 716.43 283.47 727.40
  C 277.17 730.49 273.17 732.23 269.09 735.59
  Q 263.24 740.38 257.64 747.87
  Q 249.35 758.97 241.51 770.32
  Q 234.26 780.11 223.81 786.86
  C 224.29 759.17 244.78 728.19 268.28 713.81
  Q 271.22 712.01 285.12 705.25
  Q 324.17 686.25 363.82 668.37
  A 1.03 1.03 0.0 0 1 364.94 668.55
  C 368.55 671.80 372.07 674.98 375.58 678.58
  Q 409.74 713.55 447.92 744.04
  C 467.64 759.79 488.83 774.66 510.57 787.51
  Q 511.04 787.79 511.53 787.53
  Q 516.40 784.97 524.19 779.68
  Q 566.66 750.79 596.02 725.53
  C 616.83 707.62 636.36 688.00 655.97 668.80
  Q 656.76 668.03 657.76 668.48
  C 675.08 676.38 692.30 684.23 709.45 692.74
  Q 727.97 701.93 735.14 705.11
  C 746.45 710.14 755.86 714.06 763.95 721.88
  Z"
/>
<path fill="#ffe325" d="
  M 661.20 689.65
  Q 671.20 694.73 681.23 699.70
  C 684.99 701.57 688.98 702.53 692.71 704.40
  Q 720.24 718.21 747.82 731.93
  C 754.77 735.38 759.91 739.78 763.99 746.09
  C 767.61 751.70 771.87 756.96 775.49 762.38
  Q 778.16 766.39 781.00 770.23
  Q 781.05 770.90 780.34 770.97
  Q 779.79 771.03 779.89 771.58
  Q 779.95 771.88 779.81 771.88
  Q 779.72 771.88 779.72 771.97
  L 779.56 858.82
  A 1.13 1.12 0.0 0 1 778.43 859.94
  L 753.25 859.99
  Q 751.82 860.00 751.43 858.63
  Q 750.63 855.79 749.86 852.90
  C 748.61 848.22 748.24 843.14 747.37 838.29
  C 745.17 826.13 746.71 813.69 744.73 801.53
  Q 743.81 795.96 742.62 792.50
  Q 741.32 788.71 737.30 784.42
  Q 731.29 775.77 720.75 777.05
  Q 708.00 778.59 704.22 791.53
  Q 700.86 798.86 698.91 806.77
  Q 698.42 808.75 697.58 810.92
  Q 696.79 812.96 696.18 815.06
  Q 689.98 836.30 683.36 858.37
  Q 683.03 859.46 681.89 859.50
  C 668.90 859.97 652.19 859.63 643.20 859.66
  C 624.06 859.74 605.05 860.02 585.75 859.74
  C 567.80 859.48 549.37 859.94 532.00 859.96
  Q 435.88 860.06 339.75 860.16
  C 336.89 860.16 335.56 854.92 334.98 852.51
  Q 331.12 836.39 326.44 820.50
  C 325.04 815.72 323.08 807.45 320.64 801.49
  Q 318.35 795.87 318.48 801.94
  Q 318.70 812.37 317.12 825.29
  Q 316.91 812.23 316.95 799.31
  Q 316.98 791.37 315.61 787.89
  C 309.30 771.91 285.60 773.55 281.77 790.29
  C 278.22 794.41 277.42 798.46 277.00 803.79
  C 275.64 821.07 274.76 838.90 270.68 856.46
  C 270.39 857.70 270.18 859.99 268.51 859.99
  Q 256.26 859.99 244.14 859.98
  Q 242.03 859.98 242.06 857.87
  Q 242.52 820.66 242.57 783.09
  C 242.57 779.48 242.16 776.39 243.22 772.66
  Q 243.35 772.18 243.18 771.71
  Q 242.66 770.24 241.51 770.32
  Q 249.35 758.97 257.64 747.87
  Q 263.24 740.38 269.09 735.59
  C 273.17 732.23 277.17 730.49 283.47 727.40
  C 305.85 716.43 328.57 706.08 351.05 695.28
  Q 355.00 693.39 358.28 691.60
  A 2.90 2.88 -38.5 0 1 361.57 691.96
  Q 365.27 695.22 368.55 698.45
  Q 403.60 732.87 441.99 763.46
  Q 449.87 769.75 457.88 775.60
  C 476.40 789.13 492.63 798.47 510.05 809.65
  A 2.39 2.39 0.0 0 0 512.60 809.66
  C 537.88 793.63 562.35 777.06 585.77 758.01
  C 602.10 744.72 618.52 731.49 633.39 717.14
  Q 643.16 707.73 661.20 689.65
  Z
  M 660.0945 823.8086
  A 28.28 27.92 -5.4 0 0 629.3125 798.6739
  A 28.28 27.92 -5.4 0 0 603.7855 829.1314
  A 28.28 27.92 -5.4 0 0 634.5675 854.2661
  A 28.28 27.92 -5.4 0 0 660.0945 823.8086
  Z"
/>
<path fill="#6091a3" d="
  M 778.33 737.23
  Q 773.96 733.93 771.41 729.10
  Q 775.57 732.85 778.33 737.23
  Z"
/>
<path fill="#fbc901" d="
  M 781.00 770.23
  Q 785.55 774.33 791.82 781.19
  Q 792.99 782.47 795.23 782.11
  L 794.30 782.20
  A 0.59 0.59 0.0 0 0 793.86 783.10
  Q 795.97 786.43 798.54 786.19
  L 798.76 877.20
  Q 798.76 877.68 798.28 877.69
  L 740.72 877.98
  A 0.73 0.73 0.0 0 1 739.99 877.25
  Q 740.00 834.52 739.94 792.06
  C 739.94 789.12 738.53 786.97 737.30 784.42
  Q 741.32 788.71 742.62 792.50
  Q 743.81 795.96 744.73 801.53
  C 746.71 813.69 745.17 826.13 747.37 838.29
  C 748.24 843.14 748.61 848.22 749.86 852.90
  Q 750.63 855.79 751.43 858.63
  Q 751.82 860.00 753.25 859.99
  L 778.43 859.94
  A 1.13 1.12 -0.0 0 0 779.56 858.82
  L 779.72 771.97
  Q 779.72 771.88 779.81 771.88
  Q 779.95 771.88 779.89 771.58
  Q 779.79 771.03 780.34 770.97
  Q 781.05 770.90 781.00 770.23
  Z"
/>
<path fill="#fbc901" d="
  M 241.51 770.32
  Q 242.66 770.24 243.18 771.71
  Q 243.35 772.18 243.22 772.66
  C 242.16 776.39 242.57 779.48 242.57 783.09
  Q 242.52 820.66 242.06 857.87
  Q 242.03 859.98 244.14 859.98
  Q 256.26 859.99 268.51 859.99
  C 270.18 859.99 270.39 857.70 270.68 856.46
  C 274.76 838.90 275.64 821.07 277.00 803.79
  C 277.42 798.46 278.22 794.41 281.77 790.29
  L 281.87 877.14
  A 0.59 0.58 0.0 0 1 281.28 877.72
  L 224.71 877.90
  Q 223.78 877.90 223.78 876.97
  L 223.81 786.86
  Q 234.26 780.11 241.51 770.32
  Z"
/>
<path fill="#ffffff" d="
  M 797.26 781.50
  Q 797.93 781.69 797.97 782.25
  Q 798.15 784.72 798.54 786.19
  Q 795.97 786.43 793.86 783.10
  A 0.59 0.59 0.0 0 1 794.30 782.20
  L 795.23 782.11
  Q 796.41 782.15 797.26 781.50
  Z"
/>
<path fill="#fbc901" d="
  M 704.22 791.53
  L 704.25 876.16
  A 1.31 1.31 0.0 0 1 703.12 877.46
  Q 701.77 877.64 700.25 877.64
  C 630.59 877.74 560.91 878.07 491.25 877.72
  Q 404.37 877.29 317.44 877.75
  A 0.37 0.37 0.0 0 1 317.06 877.38
  L 317.12 825.29
  Q 318.70 812.37 318.48 801.94
  Q 318.35 795.87 320.64 801.49
  C 323.08 807.45 325.04 815.72 326.44 820.50
  Q 331.12 836.39 334.98 852.51
  C 335.56 854.92 336.89 860.16 339.75 860.16
  Q 435.88 860.06 532.00 859.96
  C 549.37 859.94 567.80 859.48 585.75 859.74
  C 605.05 860.02 624.06 859.74 643.20 859.66
  C 652.19 859.63 668.90 859.97 681.89 859.50
  Q 683.03 859.46 683.36 858.37
  Q 689.98 836.30 696.18 815.06
  Q 696.79 812.96 697.58 810.92
  Q 698.42 808.75 698.91 806.77
  Q 700.86 798.86 704.22 791.53
  Z"
/>
<ellipse fill="#223a50" cx="0.00" cy="0.00" transform="translate(631.94,826.47) rotate(-5.4)" rx="28.28" ry="27.92"/>
</svg>
