<svg xmlns="http://www.w3.org/2000/svg" xmlns:xlink="http://www.w3.org/1999/xlink" version="1.1" x="0px" y="0px" viewBox="0 0 100 100" enable-background="new 0 0 100 100" xml:space="preserve">
    <g>
        <path fill="white" d="M31.3,34.2c1.6-0.5,3.5-2.2,4.2-3.5c0.7-1.3,1.2-4,0.1-5.1c-0.5-0.5-1.2-0.7-1.8-0.7c-2.6,0.1-4.7,1.3-5.9,2.9   c-0.8,1.1-1.4,3.7-0.6,5.1c0.2,0.4,1,1.2,1.8,1.4C29.7,34.5,30.6,34.4,31.3,34.2z"/>
        <path fill="white" d="M37.4,70.2c-1.2-0.9-3.1-1.8-4.8-1.6c-1.6,0.2-3.2,1.3-3.2,2.8c0,0.6,0.3,1.2,0.6,1.6c0.8,1.3,2.3,2.5,3.6,3.1   c1,0.5,3.1,1.4,4.6,1c1.4-0.4,2.1-2,1.7-3.6C39.5,72.3,38.4,71,37.4,70.2z"/>
        <path fill="white" d="M15.2,45.5c-1.4,0.1-1.9,1.8-2,3.4c-0.1,1.9,0.3,3.5,0.7,4.8c0.3,1,0.9,2.1,1.7,2.1c1.5,0,2-3.3,1.9-4.9   C17.4,48.3,16.8,46.4,15.2,45.5z"/>
        <path fill="white" d="M53.9,13.2c0.7,0.3,1.7,0.1,2.6,0.2c1.1,0.1,2.3,0.5,3.5,0.4c0.4-0.3,0.9-0.5,0.8-1.1c0-0.4-0.6-0.9-1-1.1   c-1.4-0.7-3.6-1.3-5.3-1.1c-0.9,0.1-1.9,0.5-1.8,1.4C52.7,12.4,53.3,13,53.9,13.2z"/>
        <path fill="white" d="M57.5,34.3c1.5,0.1,2.5-0.2,3.6-0.7c1.2-0.6,2.5-1.7,2.2-3.6c-0.2-1.9-2.2-3.7-3.5-4.4c-1.3-0.7-3.5-1.1-5.2-0.9   c-1.4,0.2-2.4,0.9-2.9,1.8c-0.8,1.3-0.5,3.2,0.2,4.3C52.9,32.6,55.5,34.1,57.5,34.3z"/>
        <path fill="white" d="M60.5,53.7c-0.1-1.1-0.9-2.5-1.4-3.1c-1.1-1.3-2.8-2.2-5-2c-1,0.1-1.7,0.3-2.3,0.7c-1.5,0.9-3.1,2.8-3.1,5   c0,2,1,3.7,2.3,4.7c1.4,1.1,3.7,1.6,5.5,0.8C58.4,59,60.8,56.6,60.5,53.7z"/>
        <path fill="white" d="M68.8,73.3c-0.5-0.1-1.4,0-1.7,0c-2.5,0.3-4.6,1.5-5.7,3.1c-0.5,0.6-1.3,2.1-1,3.3c0.1,0.5,0.9,1.2,1.4,1.4   c0.7,0.2,1.7-0.1,2.5-0.3c2.2-0.6,4.3-1.8,5.4-3.1c0.4-0.5,1.2-1.5,1-2.5C70.6,74.4,69.7,73.5,68.8,73.3z"/>
        <path fill="white" d="M88.1,57.4c-0.8,0.1-1.1,1.2-1.4,2c-0.4,1-0.8,2-1,3.1c-0.1,0.6-0.3,1.5-0.3,1.8c0.1,0.6,0.9,0.9,1.5,0.9   c0.2-0.4,2.4-6.5,2.4-7.5C88.9,57.8,88.7,57.3,88.1,57.4z"/>
        <path fill="white" d="M50,6.8C26.1,6.8,6.8,26.1,6.8,50S26.1,93.2,50,93.2S93.2,73.9,93.2,50S73.9,6.8,50,6.8z M50,91.3   C27.2,91.3,8.7,72.8,8.7,50C8.7,27.2,27.2,8.7,50,8.7c22.8,0,41.3,18.5,41.3,41.3C91.3,72.8,72.8,91.3,50,91.3z"/>
        <path fill="white" d="M82.7,34.6c-0.8-1.3-2-3.4-3.8-3.1c-1.4,0.2-1.8,1.8-1.7,3.6c0.1,1.4,0.8,2.3,1.6,3.5c0.5,0.8,1.2,1.6,2,1.8   c1,0.2,1.6-0.1,2-0.5c0.7-0.7,1.1-2.2,0.7-3.6C83.5,35.9,83.1,35.2,82.7,34.6z"/>
    </g>
</svg>